<svg xmlns="http://www.w3.org/2000/svg" viewBox="0 0 330 360" width="330" height="360" font-family="-apple-system,Segoe UI,Helvetica,Arial,sans-serif" role="img" aria-label="One policy compiles to each vendor's native deny — proven live on Claude, Codex and Antigravity">
  <defs><marker id="ah" markerWidth="9" markerHeight="9" refX="6" refY="3" orient="auto"><path d="M0,0 L6,3 L0,6 Z" fill="#5b6573"/></marker></defs>
  <rect x="50" y="12" width="232" height="54" rx="11" fill="#0f1318" stroke="#818cf8" stroke-width="1.5"/>
  <text x="66" y="36" font-family="ui-monospace,Menlo,monospace" font-size="13" fill="#e6edf3">jailbird.policy.yaml</text>
  <text x="66" y="53" font-size="10" fill="#8b949e">deny: git push · rm -rf · curl|sh</text>
  <line x1="166" y1="66" x2="166" y2="82" stroke="#5b6573" stroke-width="1.5"/>
  <line x1="166" y1="82" x2="58" y2="82" stroke="#5b6573" stroke-width="1.5"/>
  <line x1="58" y1="82" x2="58" y2="272" stroke="#5b6573" stroke-width="1.5"/>
  <text x="312" y="78" font-size="9.5" fill="#8b949e" text-anchor="end">jailbird apply → native deny</text>
  <line x1="58" y1="128" x2="72" y2="128" stroke="#5b6573" stroke-width="1.5" marker-end="url(#ah)"/>
  <line x1="58" y1="200" x2="72" y2="200" stroke="#5b6573" stroke-width="1.5" marker-end="url(#ah)"/>
  <line x1="58" y1="272" x2="72" y2="272" stroke="#5b6573" stroke-width="1.5" marker-end="url(#ah)"/>
  <rect x="74" y="100" width="208" height="56" rx="9" fill="#0f1318" stroke="#2b3138"/>
  <text x="90" y="125" font-size="13" font-weight="700" fill="#e6edf3">Claude</text>
  <text x="90" y="143" font-size="10" fill="#8b949e">PreToolUse hook</text>
  <text x="266" y="134" font-size="11" font-weight="700" fill="#3fb950" text-anchor="end">✓ live</text>
  <rect x="74" y="172" width="208" height="56" rx="9" fill="#0f1318" stroke="#2b3138"/>
  <text x="90" y="197" font-size="13" font-weight="700" fill="#e6edf3">Codex</text>
  <text x="90" y="215" font-size="10" fill="#8b949e">execpolicy forbidden</text>
  <text x="266" y="206" font-size="11" font-weight="700" fill="#3fb950" text-anchor="end">✓ live</text>
  <rect x="74" y="244" width="208" height="56" rx="9" fill="#0f1318" stroke="#2b3138"/>
  <text x="90" y="269" font-size="13" font-weight="700" fill="#e6edf3">Antigravity</text>
  <text x="90" y="287" font-size="10" fill="#8b949e">PreToolUse hook</text>
  <text x="266" y="278" font-size="11" font-weight="700" fill="#3fb950" text-anchor="end">✓ live</text>
  <line x1="50" y1="320" x2="282" y2="320" stroke="#2b3138" stroke-width="1"/>
  <text x="166" y="338" font-size="10.5" fill="#9aa4af" text-anchor="middle">one brain → three native mouths</text>
  <text x="166" y="353" font-size="9" fill="#6e7681" text-anchor="middle">only the OS sandbox is fully bypass-proof — stated plainly</text>
</svg>
